<svg width="800" height="500" viewBox="0 0 800 500" fill="none" xmlns="http://www.w3.org/2000/svg">
  <rect width="800" height="500" fill="#f8fafc" rx="12"/>
  <rect x="20" y="20" width="760" height="60" fill="#ffffff" rx="8"/>
  <rect x="40" y="35" width="120" height="30" fill="#e2e8f0" rx="4"/>
  <rect x="180" y="35" width="80" height="30" fill="#e2e8f0" rx="4"/>
  <rect x="20" y="100" width="200" height="380" fill="#ffffff" rx="8"/>
  <rect x="40" y="120" width="160" height="20" fill="#3b82f6" rx="4"/>
  <rect x="40" y="160" width="160" height="15" fill="#e2e8f0" rx="4"/>
  <rect x="40" y="185" width="160" height="15" fill="#e2e8f0" rx="4"/>
  <rect x="240" y="100" width="540" height="180" fill="#ffffff" rx="8"/>
  <rect x="260" y="120" width="100" height="140" fill="#f1f5f9" rx="4"/>
  <rect x="380" y="120" width="100" height="140" fill="#f1f5f9" rx="4"/>
  <rect x="500" y="120" width="100" height="140" fill="#f1f5f9" rx="4"/>
  <rect x="620" y="120" width="100" height="140" fill="#f1f5f9" rx="4"/>
  <rect x="240" y="300" width="540" height="180" fill="#ffffff" rx="8"/>
  <path d="M260 400 L320 380 L380 420 L440 360 L500 390 L560 350 L620 370 L680 340 L740 360" stroke="#3b82f6" stroke-width="3" fill="none"/>
</svg>